<svg width="34" height="34" viewBox="0 0 34 34" fill="none" xmlns="http://www.w3.org/2000/svg">
<g opacity="0.5">
<circle cx="17" cy="17" r="17" fill="white"/>
<g opacity="0.75">
<path d="M13.5994 25.8039C13.9332 25.8039 14.214 25.7303 14.4419 25.5831C14.6698 25.4322 14.8082 25.2276 14.857 24.969H15.1439C15.0829 25.2814 14.916 25.5328 14.6434 25.7231C14.3747 25.9134 14.0308 26.0085 13.6117 26.0085C13.2983 26.0085 13.0195 25.9493 12.7753 25.8308C12.5352 25.7087 12.3459 25.5346 12.2076 25.3084C12.0692 25.0822 12 24.8146 12 24.5059C12 24.2006 12.0692 23.9349 12.2076 23.7087C12.3459 23.4825 12.5352 23.3102 12.7753 23.1917C13.0195 23.0696 13.2983 23.0085 13.6117 23.0085C13.9332 23.0085 14.2099 23.0696 14.4419 23.1917C14.6779 23.3102 14.855 23.4681 14.973 23.6656C15.0951 23.8595 15.1562 24.0678 15.1562 24.2904C15.1562 24.3802 15.146 24.4753 15.1256 24.5759H12.2747C12.2788 24.8488 12.3419 25.0786 12.464 25.2653C12.5901 25.4484 12.7509 25.5848 12.9462 25.6746C13.1457 25.7608 13.3634 25.8039 13.5994 25.8039ZM13.6117 23.2078C13.3715 23.2078 13.1518 23.2527 12.9523 23.3425C12.7529 23.4322 12.5901 23.5687 12.464 23.7518C12.3419 23.9349 12.2788 24.1611 12.2747 24.4304H14.8875C14.9038 24.1611 14.853 23.9349 14.7349 23.7518C14.6169 23.5651 14.4582 23.4287 14.2588 23.3425C14.0593 23.2527 13.8436 23.2078 13.6117 23.2078Z" fill="#222222"/>
<path d="M16.9262 23.0085C17.2722 23.0085 17.551 23.0911 17.7626 23.2563C17.9742 23.4179 18.1004 23.6405 18.1411 23.9242H17.8786C17.8542 23.7159 17.7585 23.5436 17.5917 23.4071C17.4289 23.2671 17.2071 23.1971 16.9262 23.1971C16.678 23.1971 16.4826 23.2509 16.3402 23.3586C16.2018 23.4664 16.1326 23.61 16.1326 23.7895C16.1326 23.9224 16.1733 24.0283 16.2547 24.1073C16.3402 24.1863 16.4419 24.2455 16.56 24.285C16.6821 24.3209 16.8509 24.3622 17.0667 24.4089C17.3068 24.4556 17.5001 24.5041 17.6466 24.5543C17.7931 24.6046 17.9172 24.6836 18.019 24.7913C18.1207 24.899 18.1716 25.0462 18.1716 25.233C18.1716 25.4628 18.078 25.6495 17.8908 25.7931C17.7036 25.9367 17.4574 26.0085 17.1521 26.0085C16.7858 26.0085 16.4847 25.9278 16.2486 25.7662C16.0166 25.601 15.8783 25.3766 15.8335 25.0929H16.1082C16.1326 25.3012 16.2344 25.4753 16.4134 25.6154C16.5966 25.7518 16.8448 25.82 17.1582 25.82C17.3943 25.82 17.5774 25.7662 17.7076 25.6585C17.842 25.5471 17.9091 25.4035 17.9091 25.2276C17.9091 25.0875 17.8664 24.9762 17.7809 24.8936C17.6954 24.8075 17.5876 24.7446 17.4574 24.7051C17.3312 24.6656 17.1623 24.6243 16.9507 24.5813C16.7105 24.531 16.5193 24.4825 16.3768 24.4358C16.2384 24.3856 16.1184 24.3102 16.0166 24.2096C15.919 24.1055 15.8701 23.9655 15.8701 23.7895C15.8701 23.5525 15.9658 23.364 16.157 23.224C16.3483 23.0804 16.6047 23.0085 16.9262 23.0085Z" fill="#222222"/>
<path d="M20.4616 23.0085C20.8808 23.0085 21.2267 23.1055 21.4994 23.2994C21.7721 23.4897 21.939 23.7428 22 24.0588H21.7131C21.6642 23.8003 21.5259 23.5956 21.298 23.4448C21.07 23.294 20.7892 23.2186 20.4555 23.2186C20.2154 23.2186 19.9956 23.2653 19.7962 23.3586C19.5968 23.452 19.436 23.5956 19.3139 23.7895C19.1918 23.9834 19.1308 24.2222 19.1308 24.5059C19.1308 24.7895 19.1918 25.0283 19.3139 25.2222C19.436 25.4161 19.5968 25.5597 19.7962 25.6531C19.9956 25.7464 20.2154 25.7931 20.4555 25.7931C20.7892 25.7931 21.07 25.7177 21.298 25.5669C21.5259 25.4161 21.6642 25.2114 21.7131 24.9529H22C21.939 25.2725 21.7721 25.5292 21.4994 25.7231C21.2267 25.9134 20.8808 26.0085 20.4616 26.0085C20.1482 26.0085 19.8694 25.9493 19.6253 25.8308C19.3851 25.7087 19.1959 25.5346 19.0575 25.3084C18.9191 25.0822 18.85 24.8146 18.85 24.5059C18.85 24.2006 18.9191 23.9349 19.0575 23.7087C19.1959 23.4825 19.3851 23.3102 19.6253 23.1917C19.8694 23.0696 20.1482 23.0085 20.4616 23.0085Z" fill="#222222"/>
</g>
<path opacity="0.75" fill-rule="evenodd" clip-rule="evenodd" d="M11.4408 20.2035L22.0383 10.006L22.5195 10.5061L11.922 20.7036L11.4408 20.2035Z" fill="#222222"/>
<path opacity="0.75" fill-rule="evenodd" clip-rule="evenodd" d="M22.0405 20.6768L11.4412 10.5007L11.9219 10L22.5212 20.1761L22.0405 20.6768Z" fill="#222222"/>
</g>
</svg>
